<?xml version="1.0" encoding="UTF-8" standalone="no"?>
<!-- Created by AtomCrusher for the English Wikipedia -->
<svg xmlns="http://www.w3.org/2000/svg" version="1.1" width="180" height="45">
  <path d="m 66.842626,15.959 -8.448146,0 0,-4.122 c 0.03841,-4.7775 1.310795,-6.5516 2.712818,-7.4615 1.440434,-0.9459 3.629894,-1.0299 5.735328,-1.0083 0.890668,0 1.608485,-0.7202 1.608485,-1.6085 0,-0.881 -0.717817,-1.5989 -1.608485,-1.5989 -2.086229,0.014 -4.923884,-0.074 -7.456647,1.5005 -2.571175,1.6133 -4.230075,4.8735 -4.194064,10.1767 l 0,4.122 -3.300994,0 c -0.888268,0 -1.608485,0.7226 -1.608485,1.6037 0,0.8859 0.720217,1.6085 1.608485,1.6085 l 3.300994,0 0,24.0384 c 0,0.8763 0.720217,1.5989 1.603684,1.5989 0.888267,0 1.606084,-0.7226 1.606084,-1.5989 -0.0024,-15.3718 -0.0072,-16.4329 -0.0072,-24.0384 l 8.448146,0 c 0.885867,0 1.613286,-0.7226 1.613286,-1.6085 0,-0.8811 -0.727419,-1.6037 -1.613286,-1.6037" style="fill:#142529;stroke:none" />
  <path d="m 104.62425,41.6095 0,-0.01 c -2.70081,0.024 -4.883071,-0.1368 -6.119444,-1.0635 -1.224369,-0.8787 -2.314297,-2.7825 -2.328702,-7.6343 l 0,-13.6889 8.448146,0 c 0.88587,0 1.60368,-0.7179 1.60368,-1.6037 0,-0.8907 -0.71781,-1.6037 -1.60368,-1.6037 l -8.448146,0 0,-14.2411 c 0,-0.8859 -0.717816,-1.6037 -1.608484,-1.6037 -0.883467,0 -1.596481,0.7178 -1.596481,1.6037 l 0,14.2411 -3.300995,0 c -0.885867,0 -1.608485,0.713 -1.608485,1.6037 0,0.8858 0.722618,1.6037 1.608485,1.6037 l 3.300995,0 0,13.6889 c -0.01921,5.2288 1.219567,8.4721 3.665904,10.2415 2.434334,1.6973 5.286397,1.6493 7.987207,1.6637 0.88587,0 1.60368,-0.7082 1.60368,-1.5989 0,-0.8859 -0.71781,-1.5989 -1.60368,-1.5989" style="fill:#142529;stroke:none" />
  <path d="m 178.38696,41.6141 0,0 c -3.46184,0.024 -5.57928,-0.3601 -6.60919,-1.3036 -1.05632,-0.8715 -1.85096,-2.8881 -1.83896,-7.3294 l 0,-13.7634 8.44815,0 c 0.89067,0 1.60368,-0.7178 1.60368,-1.6036 0,-0.8907 -0.71301,-1.6037 -1.60368,-1.6037 l -8.44815,0 0,-14.2459 c 0,-0.8907 -0.71541,-1.5941 -1.60368,-1.5941 -0.88827,0 -1.60608,0.7034 -1.60608,1.5941 l 0,14.2459 -3.2986,0 c -0.89067,0 -1.60848,0.713 -1.60848,1.6037 0,0.8858 0.71781,1.6036 1.60848,1.6036 l 3.2986,0 0,13.7634 c 0.01,4.6886 0.73942,7.7855 2.95529,9.7493 2.24948,1.899 5.14715,2.0671 8.70262,2.0815 0.88107,0 1.60368,-0.7083 1.60368,-1.5941 0,-0.8859 -0.72261,-1.5989 -1.60368,-1.5989" style="fill:#142529;stroke:none" />
  <path d="m 76.563635,43.2084 0,-25.6445 c 0,-0.8835 0.725018,-1.6061 1.603683,-1.6061 0.888268,0 1.608485,0.7226 1.608485,1.6061 l 0,25.6445 c 0,0.8763 -0.720217,1.5989 -1.608485,1.5989 -0.878665,0 -1.603683,-0.7226 -1.603683,-1.5989" style="fill:#142529;stroke:none" />
  <path d="m 151.01535,43.2084 0,-25.6445 c 0,-0.8835 0.70821,-1.6061 1.58928,-1.6061 0.88587,0 1.60848,0.7226 1.60848,1.6061 l 0,25.6445 c 0,0.8763 -0.72261,1.5989 -1.60848,1.5989 -0.88107,0 -1.58928,-0.7226 -1.58928,-1.5989" style="fill:#142529;stroke:none" />
  <path d="m 128.78801,41.6705 c -6.24668,-0.014 -11.2978,-5.0559 -11.30981,-11.3026 0.012,-6.2443 5.06313,-11.2954 11.30981,-11.3002 6.24668,0 11.293,5.0559 11.30741,11.3002 -0.0144,6.2467 -5.06073,11.2882 -11.30741,11.3026 m 0,-25.815 c -4.57098,0 -8.64981,2.1199 -11.30981,5.4257 l 0,-19.5155 c 0,-0.8883 -0.71541,-1.6013 -1.59888,-1.6013 -0.89307,0 -1.60368,0.713 -1.60368,1.6013 l 0,29.5697 c 0,0.1128 0.0408,0.2161 0.0648,0.3241 0.64579,7.4038 6.86126,13.2184 14.44755,13.2184 8.01361,0 14.50997,-6.494 14.50997,-14.51 0,-8.0136 -6.49636,-14.5076 -14.50997,-14.5124" style="fill:#142529;stroke:none" />
  <path d="m 20.475416,22.88215 c 0,1.430611 -1.159753,2.59035 -2.59038,2.59035 -1.430629,0 -2.590381,-1.159739 -2.590381,-2.59035 0,-1.430611 1.159752,-2.59035 2.590381,-2.59035 1.430627,0 2.59038,1.159739 2.59038,2.59035 z" style="fill:#142529;stroke:none;" />
  <path d="m 28.123341,22.88215 c 0,1.430611 -1.159752,2.59035 -2.59038,2.59035 -1.430628,0 -2.590381,-1.159739 -2.590381,-2.59035 0,-1.430611 1.159753,-2.59035 2.590381,-2.59035 1.430628,0 2.59038,1.159739 2.59038,2.59035 z" style="fill:#142529;stroke:none;" />
  <path d="m 35.771266,22.88215 c 0,1.430611 -1.159753,2.59035 -2.590381,2.59035 -1.430628,0 -2.590381,-1.159739 -2.590381,-2.59035 0,-1.430611 1.159753,-2.59035 2.590381,-2.59035 1.430628,0 2.590381,1.159739 2.590381,2.59035 z" style="fill:#142529;stroke:none" />
  <path d="m 12.82749,22.88215 c 0,1.430611 -1.159752,2.59035 -2.59038,2.59035 -1.4306289,0 -2.5903815,-1.159739 -2.5903815,-2.59035 0,-1.430611 1.1597526,-2.59035 2.5903815,-2.59035 1.430628,0 2.59038,1.159739 2.59038,2.59035 z" style="fill:#142529;stroke:none" />
  <path d="m 20.475416,38.18345 c 0,1.430611 -1.159753,2.59035 -2.590381,2.59035 -1.430628,0 -2.590381,-1.159739 -2.590381,-2.59035 0,-1.430611 1.159753,-2.59035 2.590381,-2.59035 1.430628,0 2.590381,1.159739 2.590381,2.59035 z" style="fill:#2ebec0;stroke:none" />
  <path d="m 20.475416,7.59055 c 0,1.430611 -1.159753,2.59035 -2.590381,2.59035 -1.430628,0 -2.590381,-1.159739 -2.590381,-2.59035 0,-1.4306108 1.159753,-2.59035 2.590381,-2.59035 1.430628,0 2.590381,1.1597392 2.590381,2.59035 z" style="fill:#2ebec0;stroke:none" />
  <path d="m 20.475416,30.840418 c 0,1.430611 -1.159753,2.59035 -2.590381,2.59035 -1.430628,0 -2.590381,-1.159739 -2.590381,-2.59035 0,-1.430611 1.159753,-2.59035 2.590381,-2.59035 1.430628,0 2.590381,1.159739 2.590381,2.59035 z" style="fill:#2ebec0;stroke:none" />
  <path d="m 28.123341,30.840418 c 0,1.430611 -1.159753,2.59035 -2.59038,2.59035 -1.430629,0 -2.590381,-1.159739 -2.590381,-2.59035 0,-1.430611 1.159752,-2.59035 2.590381,-2.59035 1.430627,0 2.59038,1.159739 2.59038,2.59035 z" style="fill:#142529;stroke:none" />
  <path d="m 12.82749,30.840418 c 0,1.430611 -1.159752,2.59035 -2.59038,2.59035 -1.4306289,0 -2.5903815,-1.159739 -2.5903815,-2.59035 0,-1.430611 1.1597526,-2.59035 2.5903815,-2.59035 1.430628,0 2.59038,1.159739 2.59038,2.59035 z" style="fill:#2ebec0;stroke:none" />
  <path d="m 20.475416,14.819257 c 0,1.430611 -1.159753,2.59035 -2.590381,2.59035 -1.430628,0 -2.590381,-1.159739 -2.590381,-2.59035 0,-1.430611 1.159753,-2.59035 2.590381,-2.59035 1.430628,0 2.590381,1.159739 2.590381,2.59035 z" style="fill:#2ebec0;stroke:none" />
  <path d="m 28.123341,14.819257 c 0,1.430611 -1.159753,2.59035 -2.59038,2.59035 -1.430629,0 -2.590381,-1.159739 -2.590381,-2.59035 0,-1.430611 1.159752,-2.59035 2.590381,-2.59035 1.430627,0 2.59038,1.159739 2.59038,2.59035 z" style="fill:#142529;stroke:none" />
  <path d="m 12.82749,14.819257 c 0,1.430611 -1.159752,2.59035 -2.59038,2.59035 -1.4306289,0 -2.5903815,-1.159739 -2.5903815,-2.59035 0,-1.430611 1.1597526,-2.59035 2.5903815,-2.59035 1.430628,0 2.59038,1.159739 2.59038,2.59035 z" style="fill:#2ebec0;stroke:none" />
  <path d="m 5.188928,22.88215 c 0,1.430611 -1.1597526,2.59035 -2.5903804,2.59035 -1.4306284,0 -2.59038099,-1.159739 -2.59038099,-2.59035 0,-1.430611 1.15975259,-2.59035 2.59038099,-2.59035 1.4306278,0 2.5903804,1.159739 2.5903804,2.59035 z" style="fill:#142529;stroke:none" />
  <path d="m 81.375886,7.2424 c 0,1.7706961 -1.43545,3.206128 -3.206167,3.206128 -1.770717,0 -3.206166,-1.4354319 -3.206166,-3.206128 0,-1.7706956 1.435449,-3.206128 3.206166,-3.206128 1.770717,0 3.206167,1.4354325 3.206167,3.206128 z" style="fill:#2ebec0;stroke:none" />
  <path d="m 155.8204,7.2424 c 0,1.7706961 -1.43545,3.206128 -3.20617,3.206128 -1.77072,0 -3.20617,-1.4354319 -3.20617,-3.206128 0,-1.7706956 1.43545,-3.206128 3.20617,-3.206128 1.77072,0 3.20617,1.4354325 3.20617,3.206128 z" style="fill:#2ebec0;stroke:none" />
</svg>
